<?xml version="1.0" standalone="no"?>
<!DOCTYPE svg PUBLIC "-//W3C//DTD SVG 1.1//EN" "http://www.w3.org/Graphics/SVG/1.1/DTD/svg11.dtd" >
<svg>
<metadata>
Created by FontForge 20090914 at Tue Jul 26 15:14:23 2022
 By www-data
Typeface &#194;&#169; (Ten by Twenty). 2007. All Rights Reserved
</metadata>
<defs>
<font id="Munro" horiz-adv-x="1000" >
  <font-face 
    font-family="Munro"
    font-weight="400"
    font-stretch="normal"
    units-per-em="2048"
    panose-1="0 0 0 0 0 0 0 0 0 0"
    ascent="1638"
    descent="-410"
    x-height="1000"
    cap-height="1400"
    bbox="-200 -402 2048 1836"
    underline-thickness="150"
    underline-position="-142"
    unicode-range="U+000D-U+20AC"
  />
<missing-glyph horiz-adv-x="1024" 
d="M924 0h-824v1434h824v-1434zM874 50v1334h-724v-1334h724zM699 1046c0 -32 -7.66602 -65 -22.999 -99c-7.33301 -16.667 -18.333 -35.667 -33 -57s-32.667 -45.333 -54 -72l-57 -72.5c-16.667 -21.667 -30.834 -41.5 -42.501 -59.5s-20.5 -35 -26.5 -51s-9 -32 -9 -48
c0 -26 8 -70.333 24 -133h-32c-23.333 66 -35 115.333 -35 148c0 50 27 122.667 81 218c54.667 94.667 82 167 82 217c0 38 -11 68 -33 90s-52.333 33 -91 33c-24.667 0 -47.667 -5.66699 -69 -17c-8.66699 -5.33301 -17.667 -11.166 -27 -17.499s-19 -13.833 -29 -22.5v45
c20.667 18.667 40 33 58 43c34.667 20 72 30 112 30c30.667 0 58.5 -4.16699 83.5 -12.5s46.5 -20 64.5 -35s31.833 -33.333 41.5 -55s14.5 -45.834 14.5 -72.501zM553.001 311c0 -8 -3.33398 -15.333 -10.001 -22l-56 -62c-9.33301 -9.33301 -16.333 -14 -21 -14
c-7.33301 0 -14 3.33301 -20 10l-61 71c-4.66699 5.33301 -7 11.333 -7 18c0 6 3.66699 13.333 11 22l57 58c6.66699 6.66699 13.334 10 20.001 10c6 0 13.333 -3.66699 22 -11l56 -60c6 -7.33301 9 -14 9 -20z" />
    <glyph glyph-name=".notdef" horiz-adv-x="1024" 
d="M924 0h-824v1434h824v-1434zM874 50v1334h-724v-1334h724zM699 1046c0 -32 -7.66602 -65 -22.999 -99c-7.33301 -16.667 -18.333 -35.667 -33 -57s-32.667 -45.333 -54 -72l-57 -72.5c-16.667 -21.667 -30.834 -41.5 -42.501 -59.5s-20.5 -35 -26.5 -51s-9 -32 -9 -48
c0 -26 8 -70.333 24 -133h-32c-23.333 66 -35 115.333 -35 148c0 50 27 122.667 81 218c54.667 94.667 82 167 82 217c0 38 -11 68 -33 90s-52.333 33 -91 33c-24.667 0 -47.667 -5.66699 -69 -17c-8.66699 -5.33301 -17.667 -11.166 -27 -17.499s-19 -13.833 -29 -22.5v45
c20.667 18.667 40 33 58 43c34.667 20 72 30 112 30c30.667 0 58.5 -4.16699 83.5 -12.5s46.5 -20 64.5 -35s31.833 -33.333 41.5 -55s14.5 -45.834 14.5 -72.501zM553.001 311c0 -8 -3.33398 -15.333 -10.001 -22l-56 -62c-9.33301 -9.33301 -16.333 -14 -21 -14
c-7.33301 0 -14 3.33301 -20 10l-61 71c-4.66699 5.33301 -7 11.333 -7 18c0 6 3.66699 13.333 11 22l57 58c6.66699 6.66699 13.334 10 20.001 10c6 0 13.333 -3.66699 22 -11l56 -60c6 -7.33301 9 -14 9 -20z" />
    <glyph glyph-name="NULL" horiz-adv-x="0" 
 />
    <glyph glyph-name="NULL" horiz-adv-x="0" 
 />
    <glyph glyph-name="nonmarkingreturn" unicode="&#xd;" horiz-adv-x="508" 
 />
    <glyph glyph-name="space" unicode=" " horiz-adv-x="600" 
 />
    <glyph glyph-name="exclam" unicode="!" horiz-adv-x="400" 
d="M201 400h-200v1001h200v-1001zM201 0h-200v200h200v-200z" />
    <glyph glyph-name="quotedbl" unicode="&#x22;" horiz-adv-x="800" 
d="M600 1200h-200v400h200v-400zM200 1200h-200v400h200v-400z" />
    <glyph glyph-name="numbersign" unicode="#" horiz-adv-x="1200" 
d="M999 800h-1000v200h1000v-200zM799 200h-200v1000h200v-1000zM399 200h-200v1000h200v-1000zM999 400h-1000v200h1000v-200zM399 200h-200v1000h200v-1000z" />
    <glyph glyph-name="dollar" unicode="$" horiz-adv-x="800" 
d="M400 1400h-200v200h200v-200zM600 200h-200v-200h-400v200h400v400h-200v200h-200v400h200v200h400v-200h-400v-400h200v-200h200v-400zM400 -201h-200v200h200v-200z" />
    <glyph glyph-name="percent" unicode="%" horiz-adv-x="1600" 
d="M600 1000h-200v-200h-200v200h-200v200h200v200h200v-200h200v-200zM1400 1200h-200v-200h-200v-200h-200v-200h-200v-200h-200v-200h-200v-200h-200v200h200v200h200v200h200v200h200v200h200v200h200v200h200v-200zM1400 200h-200v-200h-200v200h-200v200h200v200h200
v-200h200v-200zM400 1000v200h-200v-200h200zM1200 200v200h-200v-200h200z" />
    <glyph glyph-name="ampersand" unicode="&#x26;" horiz-adv-x="1400" 
d="M1200 0h-200v200h-200v-200h-600v200h-200v400h200v200h200v200h-200v200h200v200h200v-200h200v-200h-200v-200h200v-200h200v200h200v-200h-200v-400h200v-200zM600 1000v200h-200v-200h200zM800 200v400h-199v200h-200v-200h-201v-400h600z" />
    <glyph glyph-name="quotesingle" unicode="'" horiz-adv-x="400" 
d="M200 1200h-200v400h200v-400z" />
    <glyph glyph-name="parenleft" unicode="(" horiz-adv-x="600" 
d="M400 1400h-200v200h200v-200zM200 0h-200v1400h200v-1400zM400 -201h-200v200h200v-200z" />
    <glyph glyph-name="parenright" unicode=")" horiz-adv-x="600" 
d="M200 1400h-200v200h200v-200zM400 0h-200v1400h200v-1400zM200 -201h-200v200h200v-200z" />
    <glyph glyph-name="asterisk" unicode="*" horiz-adv-x="800" 
d="M400 1000v200h-200v-200h-200v200h200v200h-200v200h200v-200h400v200h-200v-200v-200h200v-200h-200z" />
    <glyph glyph-name="plus" unicode="+" horiz-adv-x="1200" 
d="M1000 600h-400v-400h-200v400h-400v200h400v400h200v-400h400v-200z" />
    <glyph glyph-name="comma" unicode="," horiz-adv-x="400" 
d="M200 -201h-200v400h200v-400z" />
    <glyph glyph-name="hyphen" unicode="-" horiz-adv-x="800" 
d="M600 400h-600v200h600v-200z" />
    <glyph glyph-name="period" unicode="." horiz-adv-x="400" 
d="M200 0h-200v200h200v-200z" />
    <glyph glyph-name="slash" unicode="/" horiz-adv-x="800" 
d="M601 1000h-200v-600h-200v-600h-200v600h200v600h200v600h200v-600z" />
    <glyph glyph-name="zero" unicode="0" 
d="M800 200h-200v-200h-400v200h-200v1000h200v200h400v-200h200v-1000zM600 200v1000h-400v-1000h400z" />
    <glyph glyph-name="one" unicode="1" horiz-adv-x="600" 
d="M400 0h-200v1000h-200v200h200v200h200v-1400z" />
    <glyph glyph-name="two" unicode="2" horiz-adv-x="800" 
d="M600 0h-600v599h200v200h200v400h-400v200h400v-200h200v-400h-200v-200h-200v-399h400v-200z" />
    <glyph glyph-name="three" unicode="3" horiz-adv-x="800" 
d="M600 200h-200v-200h-400v200h400v400h-400v200h400v400h-400v200h400v-200h200v-400h-200v-200h200v-400z" />
    <glyph glyph-name="four" unicode="4" 
d="M800 400h-200v-400h-200v400h-400v1000h200v-800h200v400h200v-400h200v-200z" />
    <glyph glyph-name="five" unicode="5" horiz-adv-x="800" 
d="M600 200h-200v-200h-400v200h400v400h-400v799h600v-200h-400v-399h200v-200h200v-400z" />
    <glyph glyph-name="six" unicode="6" 
d="M800 200h-200v-200h-400v200h-200v1000h200v200h400v-200h-400v-400h400v-200h200v-400zM600 200v400h-400v-400h400z" />
    <glyph glyph-name="seven" unicode="7" horiz-adv-x="800" 
d="M600 802h-200v-400h-200v-400h-200v400h200v400h200v398h-400v200h600v-598z" />
    <glyph glyph-name="eight" unicode="8" 
d="M800 200h-200v-200h-400v200h-200v400h200v200h-200v400h200v200h400v-200h200v-400h-200v-200h200v-400zM600 800v400h-400v-400h400zM600 199v400h-400v-400h400z" />
    <glyph glyph-name="nine" unicode="9" 
d="M800 200h-200v-200h-400v200h400v400h-400v200h-200v400h200v200h400v-200h200v-1000zM600 800v400h-400v-400h400z" />
    <glyph glyph-name="colon" unicode=":" horiz-adv-x="400" 
d="M200 600h-200v200h200v-200zM200 0h-200v200h200v-200z" />
    <glyph glyph-name="semicolon" unicode=";" horiz-adv-x="400" 
d="M200 601h-200v200h200v-200zM200 -200h-200v400h200v-400z" />
    <glyph glyph-name="less" unicode="&#x3c;" horiz-adv-x="1014" 
d="M927 193l-840 481v83l840 484v-167l-625 -359l625 -355v-167z" />
    <glyph glyph-name="equal" unicode="=" horiz-adv-x="1014" 
d="M927 803h-840v140h840v-140zM927 491h-840v140h840v-140z" />
    <glyph glyph-name="greater" unicode="&#x3e;" horiz-adv-x="1014" 
d="M927 674l-840 -481v167l625 355l-625 359v167l840 -484v-83z" />
    <glyph glyph-name="question" unicode="?" horiz-adv-x="800" 
d="M600 800h-200v-400h-200v400h200v400h-400v200h400v-200h200v-400zM400 0h-200v200h200v-200z" />
    <glyph glyph-name="at" unicode="@" horiz-adv-x="1600" 
d="M1200 1000h-200v200h200v-200zM1000 1200h-600v200h600v-200zM1400 400h-200v600h200v-600zM800 800h-200v200h200v-200zM1000 400h-200v400h200v-400zM400 1000h-200v200h200v-200zM1200 200h-200v200h200v-200zM600 600h-200v200h200v-200zM800 400h-200v200h200v-200z
M200 400h-200v600h200v-600zM1000 0h-600v200h600v-200zM400 200h-200v200h200v-200zM400 1000h-200v200h200v-200z" />
    <glyph glyph-name="A" unicode="A" 
d="M800 0h-200v600h-400v-600h-200v1200h200v200h400v-200h200v-1200zM600 800v400h-400v-400h400z" />
    <glyph glyph-name="B" unicode="B" 
d="M800 200h-200v-200h-600v1400h600v-200h200v-400h-200v-200h200v-400zM600 800v400h-400v-400h400zM600 200v400h-400v-400h400z" />
    <glyph glyph-name="C" unicode="C" horiz-adv-x="800" 
d="M600 0h-400v200h-200v1000h200v200h400v-200h-400v-1000h400v-200z" />
    <glyph glyph-name="D" unicode="D" 
d="M800 200h-200v-200h-600v1400h600v-200h200v-1000zM600 200v1000h-400v-1000h400z" />
    <glyph glyph-name="E" unicode="E" horiz-adv-x="800" 
d="M600 0h-600v1400h600v-200h-400v-400h400v-200h-400v-400h400v-200z" />
    <glyph glyph-name="F" unicode="F" horiz-adv-x="800" 
d="M600 600h-400v-600h-200v1400h600v-200h-400v-400h400v-200z" />
    <glyph glyph-name="G" unicode="G" 
d="M800 200h-200v-200h-400v200h-200v1002h200v200h400v-202h-400v-1000h400v400h-200v200h400v-600z" />
    <glyph glyph-name="H" unicode="H" 
d="M800 0h-200v600h-400v-600h-200v1400h200v-600h400v600h200v-1400z" />
    <glyph glyph-name="I" unicode="I" horiz-adv-x="400" 
d="M200 0h-200v1400h200v-1400z" />
    <glyph glyph-name="J" unicode="J" horiz-adv-x="600" 
d="M400 200h-200v-200h-200v200h200v1000h-200v200h400v-1200z" />
    <glyph glyph-name="K" unicode="K" 
d="M800 0h-200v400h-200v200h-200v-600h-200v1400h200v-600h200v200h200v400h200v-400h-200v-200h-200v-200h200v-200h200v-400z" />
    <glyph glyph-name="L" unicode="L" horiz-adv-x="800" 
d="M600 0h-600v1400h200v-1200h400v-200z" />
    <glyph glyph-name="M" unicode="M" horiz-adv-x="1200" 
d="M1000 0h-200v800h-200v-200h-200v200h-200v-800h-200v1400h200v-400h200v-200h200v200h200v400h200v-1400z" />
    <glyph glyph-name="N" unicode="N" 
d="M800 0h-200v600h-200v200h-200v-800h-200v1400h200v-400h200v-200h200v600h200v-1400z" />
    <glyph glyph-name="O" unicode="O" 
d="M800 200h-200v-200h-400v200h-200v1000h200v200h400v-200h200v-1000zM600 200v1000h-400v-1000h400z" />
    <glyph glyph-name="P" unicode="P" 
d="M800 800h-200v-200h-400v-600h-200v1400h600v-200h200v-400zM600 800v400h-400v-400h400z" />
    <glyph glyph-name="Q" unicode="Q" 
d="M800 400h-200v800h-400v-1000h200v-200h-200v200h-200v1000h200v200h400v-200h200v-800zM800 0h-200v200h-200v200h200v-200h200v-200z" />
    <glyph glyph-name="R" unicode="R" 
d="M800 800h-200v-200h-400v-600h-200v1400h600v-200h200v-400zM800 0h-200v600h200v-600zM600 800v400h-400v-400h400z" />
    <glyph glyph-name="S" unicode="S" horiz-adv-x="800" 
d="M600 200h-200v-200h-400v200h400v400h-200v200h-200v400h200v200h400v-200h-400v-400h200v-200h200v-400z" />
    <glyph glyph-name="T" unicode="T" horiz-adv-x="800" 
d="M600 1200h-200v-1200h-200v1200h-200v200h600v-200z" />
    <glyph glyph-name="U" unicode="U" 
d="M800 200h-200v-200h-400v200h-200v1200h200v-1200h400v1200h200v-1200z" />
    <glyph glyph-name="V" unicode="V" horiz-adv-x="1200" 
d="M1000 800h-200v-400h-200v-400h-200v400h-200v400h-200v600h200v-600h200v-400h200v400h200v600h200v-600z" />
    <glyph glyph-name="W" unicode="W" horiz-adv-x="1200" 
d="M1000 0h-200v400h-200v200h-200v-200h-200v-400h-200v1400h200v-800h200v200h200v-200h200v800h200v-1400z" />
    <glyph glyph-name="X" unicode="X" horiz-adv-x="1200" 
d="M1000 0h-200v400h-200v200h-200v-200h-200v-400h-200v400h200v200h200v200h-200v200h-200v400h200v-400h200v-200h200v200h200v400h200v-400h-200v-200h-200v-200h200v-200h200v-400z" />
    <glyph glyph-name="Y" unicode="Y" horiz-adv-x="1200" 
d="M1000 1000h-200v-200h-200v-800h-200v800h-200v200h-200v400h200v-400h200v-200h200v200h200v400h200v-400z" />
    <glyph glyph-name="Z" unicode="Z" horiz-adv-x="800" 
d="M600 0h-600v400h200v600h200v200h-400v200h600v-400h-200v-600h-200v-200h400v-200z" />
    <glyph glyph-name="bracketleft" unicode="[" horiz-adv-x="600" 
d="M400 1600h-200v200h200v-200zM200 -400h-200v2200h200v-2200zM400 -401h-200v200h200v-200z" />
    <glyph glyph-name="backslash" unicode="\" horiz-adv-x="800" 
d="M601 -200h-200v600h-200v600h-200v600h200v-600h200v-600h200v-600z" />
    <glyph glyph-name="bracketright" unicode="]" horiz-adv-x="600" 
d="M200 1600h-200v200h200v-200zM400 -400h-200v2200h200v-2200zM200 -401h-200v200h200v-200z" />
    <glyph glyph-name="asciicircum" unicode="^" horiz-adv-x="800" 
d="M400 1400h-200v200h200v-200zM600 1200h-200v200h200v-200zM200 1200h-200v200h200v-200z" />
    <glyph glyph-name="underscore" unicode="_" horiz-adv-x="1200" 
d="M1000 -200h-1000v200h1000v-200z" />
    <glyph glyph-name="a" unicode="a" 
d="M800 0h-600v200h-200v200h200v200h400v200h-400v200h400v-200h200v-800zM600 200v200h-400v-200h400z" />
    <glyph glyph-name="b" unicode="b" 
d="M800 200h-200v-200h-600v1400h200v-400h400v-200h200v-600zM600 200v600h-400v-600h400z" />
    <glyph glyph-name="c" unicode="c" horiz-adv-x="800" 
d="M600 0h-400v200h-200v600h200v200h400v-200h-400v-600h400v-200z" />
    <glyph glyph-name="d" unicode="d" 
d="M800 0h-600v200h-200v600h200v200h400v400h200v-1400zM600 200v600h-400v-600h400z" />
    <glyph glyph-name="e" unicode="e" 
d="M800 400h-600v-200h400v-200h-400v200h-200v600h200v200h400v-200h200v-400zM600 600v200h-400v-200h400z" />
    <glyph glyph-name="f" unicode="f" horiz-adv-x="600" 
d="M600 1200h-400v-200h200v-200h-200v-800h-200v1200h200v200h400v-200z" />
    <glyph glyph-name="g" unicode="g" 
d="M800 -200h-200v-200h-400v200h400v200h-400v200h-200v600h200v200h400v-200h200v-1000zM600 200v600h-400v-600h400z" />
    <glyph glyph-name="h" unicode="h" 
d="M800 0h-200v800h-400v-800h-200v1400h200v-400h400v-200h200v-800z" />
    <glyph glyph-name="i" unicode="i" horiz-adv-x="400" 
d="M200 1200h-200v200h200v-200zM200 0h-200v1000h200v-1000z" />
    <glyph glyph-name="j" unicode="j" horiz-adv-x="400" 
d="M200 1200h-200v200h200v-200zM200 -200h-200v1200h200v-1200zM0 -400h-200v200h200v-200z" />
    <glyph glyph-name="k" unicode="k" 
d="M800 0h-200v200h-200v200h-200v-400h-200v1400h200v-800h200v200h200v200h200v-200h-200v-200h-200v-200h200v-200h200v-200z" />
    <glyph glyph-name="l" unicode="l" horiz-adv-x="400" 
d="M200 0h-200v1400h200v-1400z" />
    <glyph glyph-name="m" unicode="m" horiz-adv-x="1600" 
d="M1400 0h-200v800h-400v-800h-200v800h-400v-800h-200v800h200v200h400v-200h200v200h400v-200h200v-800z" />
    <glyph glyph-name="n" unicode="n" 
d="M800 0h-200v800h-400v-800h-200v800h200v200h400v-200h200v-800z" />
    <glyph glyph-name="o" unicode="o" 
d="M800 200h-200v-200h-400v200h-200v600h200v200h400v-200h200v-600zM600 200v600h-400v-600h400z" />
    <glyph glyph-name="p" unicode="p" 
d="M800 200h-200v-200h-400v-400h-200v1400h200h400v-200h200v-600zM600 200v600h-400v-600h400z" />
    <glyph glyph-name="q" unicode="q" 
d="M1000 -400h-400v400h-400v200h-200v600h200v200h400v-200h200v-1000h200v-200zM600 200v600h-400v-600h400z" />
    <glyph glyph-name="r" unicode="r" horiz-adv-x="800" 
d="M600 800h-400v-800h-200v800h200v200h400v-200z" />
    <glyph glyph-name="s" unicode="s" horiz-adv-x="800" 
d="M600 200h-200v-200h-400v200h400v200h-200v200h-200v200h200v200h400v-200h-400v-200h200v-200h200v-200z" />
    <glyph glyph-name="t" unicode="t" horiz-adv-x="800" 
d="M600 0h-400v200h-200v1200h200v-400h200v-200h-200v-600h400v-200z" />
    <glyph glyph-name="u" unicode="u" 
d="M800 200h-200v-200h-400v200h-200v800h200v-800h400v800h200v-800z" />
    <glyph glyph-name="v" unicode="v" horiz-adv-x="1200" 
d="M1000 600h-200v-400h-200v-200h-200v200h-200v400h-200v400h200v-400h200v-400h200v400h200v400h200v-400z" />
    <glyph glyph-name="w" unicode="w" horiz-adv-x="1600" 
d="M1400 200h-200v-200h-400v200h-200v-200h-400v200h-200v800h200v-800h400v800h200v-800h400v800h200v-800z" />
    <glyph glyph-name="x" unicode="x" horiz-adv-x="1200" 
d="M1000 0h-200v200h-200v200h-200v-200h-200v-200h-200v200h200v200h200v200h-200v200h-200v200h200v-200h200v-200h200v200h200v200h200v-200h-200v-200h-200v-200h200v-200h200v-200z" />
    <glyph glyph-name="y" unicode="y" 
d="M800 -200h-200v-200h-400v200h400v200h-400v200h-200v800h200v-800h400v800h200v-1200z" />
    <glyph glyph-name="z" unicode="z" horiz-adv-x="800" 
d="M600 0h-600v200v200h200v200h200v200h-400v200h600v-200v-200h-200v-200h-200v-200h400v-200z" />
    <glyph glyph-name="braceleft" unicode="{" horiz-adv-x="800" 
d="M600 -200h-200v200h-200v600h-200v200h200v600h200v200h200v-200h-200v-600h-200v-200h200v-600h200v-200z" />
    <glyph glyph-name="bar" unicode="|" horiz-adv-x="800" 
d="M400 -400h-200v2200h200v-2200z" />
    <glyph glyph-name="braceright" unicode="}" horiz-adv-x="800" 
d="M600 600h-200v-600h-200v-200h-200v200h200v600h200v200h-200v600h-200v200h200v-200h200v-600h200v-200z" />
    <glyph glyph-name="asciitilde" unicode="~" horiz-adv-x="1200" 
d="M1000 400h-200v200h200v-200zM400 600h-200v200h200v-200zM600 400h-200v200h200v-200zM800 200h-200v200h200v-200zM200 400h-200v200h200v-200z" />
    <glyph glyph-name="uni00A0" unicode="&#xa0;" horiz-adv-x="600" 
 />
    <glyph glyph-name="exclamdown" unicode="&#xa1;" horiz-adv-x="400" 
d="M0 1198v200h200v-200h-200zM0 -3v1001h200v-1001h-200z" />
    <glyph glyph-name="sterling" unicode="&#xa3;" 
d="M0 -2v200h200v1000h200v200h400v-200h-400v-400h200v-200h-200v-400h400v-200h-800z" />
    <glyph glyph-name="copyright" unicode="&#xa9;" horiz-adv-x="1600" 
d="M0 998v-600h200v600h-200zM200 1198v-200h200v200h-200zM200 1198v-200h200v200h-200zM1000 1398h-600v-200h600v200zM1200 1198h-200v-200h200v200zM1400 398v600h-200v-600h200zM1200 198v200h-200v-200h200zM400 -2h600v200h-600v-200zM200 198h200v200h-200v-200z
M1000 598h-400v-200h400v200zM600 798h-200v-200h200v200zM1000 998h-400v-200h400v200z" />
    <glyph glyph-name="guillemotleft" unicode="&#xab;" horiz-adv-x="1200" 
d="M0 598v-200h200v200h-200zM200 798v-200h200v200h-200zM200 398v-200h200v200h-200zM600 598v-200h200v200h-200zM800 798v-200h200v200h-200zM800 398v-200h200v200h-200z" />
    <glyph glyph-name="logicalnot" unicode="&#xac;" horiz-adv-x="1014" 
d="M87 683h840v-491l-1 -1h-98v392h-741v100z" />
    <glyph glyph-name="uni00AD" unicode="&#xad;" horiz-adv-x="800" 
d="M0 571v200h600v-200h-600z" />
    <glyph glyph-name="registered" unicode="&#xae;" horiz-adv-x="1600" 
d="M0 998v-600h200v600h-200zM200 1198v-200h200v200h-200zM200 1198v-200h200v200h-200zM1000 1398h-600v-200h600v200zM1200 1198h-200v-200h200v200zM1400 398v600h-200v-600h200zM1200 198v200h-200v-200h200zM400 -2h600v200h-600v-200zM200 198h200v200h-200v-200z
M600 798h-200v-400h200v400zM1000 998h-400v-200h400v200z" />
    <glyph glyph-name="degree" unicode="&#xb0;" horiz-adv-x="800" 
d="M200 1598v-200h-200v-200h200v-200h200v200h200v200h-200v200h-200zM400 1398v-200h-200v200h200z" />
    <glyph glyph-name="guillemotright" unicode="&#xbb;" horiz-adv-x="1200" 
d="M800 598v-200h200v200h-200zM600 798v-200h200v200h-200zM600 398v-200h200v200h-200zM200 598v-200h200v200h-200zM0 798v-200h200v200h-200zM0 398v-200h200v200h-200z" />
    <glyph glyph-name="questiondown" unicode="&#xbf;" horiz-adv-x="800" 
d="M600 -2v200h-400v400h200v400h-200v-400h-200v-400h200v-200h400zM400 1198v200h-200v-200h200z" />
    <glyph glyph-name="Agrave" unicode="&#xc0;" 
d="M400 1636v-200h200v200h-200zM200 1836v-200h200v200h-200zM0 -2v1200h200v200h400v-200h200v-1200h-200v600h-400v-600h-200zM200 798h400v400h-400v-400z" />
    <glyph glyph-name="Aacute" unicode="&#xc1;" 
d="M400 1836v-200h200v200h-200zM200 1636v-200h200v200h-200zM0 -2v1200h200v200h400v-200h200v-1200h-200v600h-400v-600h-200zM200 798h400v400h-400v-400z" />
    <glyph glyph-name="Acircumflex" unicode="&#xc2;" 
d="M498 1636h201v-202h-201v202zM298 1836v-200h200v200h-200zM98 1636v-200h200v200h-200zM0 -2v1200h200v200h400v-200h200v-1200h-200v600h-400v-600h-200zM200 798h400v400h-400v-400z" />
    <glyph glyph-name="Atilde" unicode="&#xc3;" 
d="M0 1636v-200h200v200h-200zM200 1836v-200h200v200h-200zM400 1636v-200h200v200h-200zM600 1836v-200h200v200h-200zM0 -2v1200h200v200h400v-200h200v-1200h-200v600h-400v-600h-200zM200 798h400v400h-400v-400z" />
    <glyph glyph-name="Adieresis" unicode="&#xc4;" 
d="M499 1436h200v200h-200v-200zM99 1436h200v200h-200v-200zM0 -2v1200h200v200h400v-200h200v-1200h-200v600h-400v-600h-200zM200 798h400v400h-400v-400z" />
    <glyph glyph-name="Ccedilla" unicode="&#xc7;" horiz-adv-x="800" 
d="M400 -2h200v-200h-200v200zM200 -202h200v-200h-200v200zM600 -2h-400v200h-200v1000h200v200h400v-200h-400v-1000h400v-200z" />
    <glyph glyph-name="Egrave" unicode="&#xc8;" horiz-adv-x="800" 
d="M200 1636v-200h200v200h-200zM0 1836v-200h200v200h-200zM0 -2v1400h600v-200h-400v-400h400v-200h-400v-400h400v-200h-600z" />
    <glyph glyph-name="Eacute" unicode="&#xc9;" horiz-adv-x="800" 
d="M400 1836v-200h200v200h-200zM200 1636v-200h200v200h-200zM0 -2v1400h600v-200h-400v-400h400v-200h-400v-400h400v-200h-600z" />
    <glyph glyph-name="Ecircumflex" unicode="&#xca;" horiz-adv-x="800" 
d="M200 1636v198h199v-198h-199zM400 1436h200v200h-200v-200zM0 1436h200v200h-200v-200zM0 -2v1400h600v-200h-400v-400h400v-200h-400v-400h400v-200h-600z" />
    <glyph glyph-name="Edieresis" unicode="&#xcb;" horiz-adv-x="800" 
d="M400 1436h200v200h-200v-200zM0 1436h200v200h-200v-200zM0 -2v1400h600v-200h-400v-400h400v-200h-400v-400h400v-200h-600z" />
    <glyph glyph-name="Igrave" unicode="&#xcc;" horiz-adv-x="600" 
d="M200 1636v-200h200v200h-200zM0 1836v-200h200v200h-200zM200 1398h200v-1400h-200v1400z" />
    <glyph glyph-name="Iacute" unicode="&#xcd;" horiz-adv-x="600" 
d="M200 1836v-200h200v200h-200zM0 1636v-200h200v200h-200zM0 1398h200v-1400h-200v1400z" />
    <glyph glyph-name="Idieresis" unicode="&#xcf;" horiz-adv-x="800" 
d="M400 1436h200v200h-200v-200zM0 1436h200v200h-200v-200zM200 1398h200v-1400h-200v1400z" />
    <glyph glyph-name="Ntilde" unicode="&#xd1;" 
d="M0 1636v-200h200v200h-200zM200 1836v-200h200v200h-200zM400 1636v-200h200v200h-200zM600 1836v-200h200v200h-200zM0 -2v1400h200v-400h200v-200h200v600h200v-1400h-200v600h-200v200h-200v-800h-200z" />
    <glyph glyph-name="Ograve" unicode="&#xd2;" 
d="M400 1636v-200h200v200h-200zM200 1836v-200h200v200h-200zM200 198h-200v1000h200v200h400v-200h200v-1000h-200v-200h-400v200zM200 198h400v1000h-400v-1000z" />
    <glyph glyph-name="Oacute" unicode="&#xd3;" 
d="M400 1836v-200h200v200h-200zM200 1636v-200h200v200h-200zM200 198h-200v1000h200v200h400v-200h200v-1000h-200v-200h-400v200zM200 198h400v1000h-400v-1000z" />
    <glyph glyph-name="Ocircumflex" unicode="&#xd4;" 
d="M498 1636h207v-199h-207v199zM298 1836v-200h200v200h-200zM98 1636v-200h200v200h-200zM200 198h-200v1000h200v200h400v-200h200v-1000h-200v-200h-400v200zM200 198h400v1000h-400v-1000z" />
    <glyph glyph-name="Otilde" unicode="&#xd5;" 
d="M0 1636v-200h200v200h-200zM200 1836v-200h200v200h-200zM400 1636v-200h200v200h-200zM600 1836v-200h200v200h-200zM200 198h-200v1000h200v200h400v-200h200v-1000h-200v-200h-400v200zM200 198h400v1000h-400v-1000z" />
    <glyph glyph-name="Odieresis" unicode="&#xd6;" 
d="M499 1436h200v200h-200v-200zM99 1436h200v200h-200v-200zM200 198h-200v1000h200v200h400v-200h200v-1000h-200v-200h-400v200zM200 198h400v1000h-400v-1000z" />
    <glyph glyph-name="multiply" unicode="&#xd7;" horiz-adv-x="800" 
d="M400 998v-200h200v-200h-200v200h-200v-200h-200v200h200v200h-200v200h200v-200h400v200h-200v-200z" />
    <glyph glyph-name="Ugrave" unicode="&#xd9;" 
d="M400 1636v-200h200v200h-200zM200 1836v-200h200v200h-200zM0 1398v-1200h200v-200h400v200h200v1200h-200v-1200h-400v1200h-200z" />
    <glyph glyph-name="Uacute" unicode="&#xda;" 
d="M400 1836v-200h200v200h-200zM200 1636v-200h200v200h-200zM0 1398v-1200h200v-200h400v200h200v1200h-200v-1200h-400v1200h-200z" />
    <glyph glyph-name="Udieresis" unicode="&#xdc;" 
d="M499 1436h200v200h-200v-200zM99 1436h200v200h-200v-200zM0 1398v-1200h200v-200h400v200h200v1200h-200v-1200h-400v1200h-200z" />
    <glyph glyph-name="Yacute" unicode="&#xdd;" horiz-adv-x="1200" 
d="M600 1836v-200h200v200h-200zM400 1636v-200h200v200h-200zM0 1398v-400h200v-200h200v-800h200v800h200v200h200v400h-200v-400h-200v-200h-200v200h-200v400h-200z" />
    <glyph glyph-name="germandbls" unicode="&#xdf;" 
d="M600 198v400h-200v200h200v400h-400v-400v-200v-400v-200v-200h-200v200v1400h600v-200h200v-400h-200v-200h200v-400h-200zM600 198v-200h-200v200h200z" />
    <glyph glyph-name="agrave" unicode="&#xe0;" 
d="M400 1398v-200h200v200h-200zM200 1598v-200h200v200h-200zM200 198h-200v200h200v200h400v200h-400v200h400v-200h200v-800h-600v200zM600 198v200h-400v-200h400z" />
    <glyph glyph-name="aacute" unicode="&#xe1;" 
d="M400 1598v-200h200v200h-200zM200 1398v-200h200v200h-200zM200 198h-200v200h200v200h400v200h-400v200h400v-200h200v-800h-600v200zM600 198v200h-400v-200h400z" />
    <glyph glyph-name="acircumflex" unicode="&#xe2;" 
d="M498 1398h201v-204h-201v204zM298 1598v-200h200v200h-200zM98 1398v-200h200v200h-200zM200 198h-200v200h200v200h400v200h-400v200h400v-200h200v-800h-600v200zM600 198v200h-400v-200h400z" />
    <glyph glyph-name="atilde" unicode="&#xe3;" 
d="M0 1398v-200h200v200h-200zM200 1598v-200h200v200h-200zM400 1398v-200h200v200h-200zM600 1598v-200h200v200h-200zM200 198h-200v200h200v200h400v200h-400v200h400v-200h200v-800h-600v200zM600 198v200h-400v-200h400z" />
    <glyph glyph-name="adieresis" unicode="&#xe4;" 
d="M499 1198h200v200h-200v-200zM99 1198h200v200h-200v-200zM200 198h-200v200h200v200h400v200h-400v200h400v-200h200v-800h-600v200zM600 198v200h-400v-200h400z" />
    <glyph glyph-name="ccedilla" unicode="&#xe7;" horiz-adv-x="800" 
d="M400 -2h200v-200h-200v200zM200 -202h200v-200h-200v200zM200 -2v200h-200v600h200v200h400v-200h-400v-600h400v-200h-400z" />
    <glyph glyph-name="egrave" unicode="&#xe8;" 
d="M400 1398v-200h200v200h-200zM200 1598v-200h200v200h-200zM600 198v-200h-400v200h-200v600h200v200h400v-200h200v-400h-600v-200h400zM200 798v-200h400v200h-400z" />
    <glyph glyph-name="eacute" unicode="&#xe9;" 
d="M400 1598v-200h200v200h-200zM200 1398v-200h200v200h-200zM600 198v-200h-400v200h-200v600h200v200h400v-200h200v-400h-600v-200h400zM200 798v-200h400v200h-400z" />
    <glyph glyph-name="ecircumflex" unicode="&#xea;" 
d="M493 1202v201h192v-201h-192zM493 1397v-195v195zM293 1597v-200h200v200h-200zM93 1397v-200h200v200h-200zM600 198v-200h-400v200h-200v600h200v200h400v-200h200v-400h-600v-200h400zM200 798v-200h400v200h-400z" />
    <glyph glyph-name="edieresis" unicode="&#xeb;" 
d="M499 1198h200v200h-200v-200zM99 1198h200v200h-200v-200zM600 198v-200h-400v200h-200v600h200v200h400v-200h200v-400h-600v-200h400zM200 798v-200h400v200h-400z" />
    <glyph glyph-name="igrave" unicode="&#xec;" horiz-adv-x="600" 
d="M200 1398v-200h200v200h-200zM0 1598v-200h200v200h-200zM200 998v-1000h200v1000h-200z" />
    <glyph glyph-name="iacute" unicode="&#xed;" horiz-adv-x="600" 
d="M200 1598v-200h200v200h-200zM0 1398v-200h200v200h-200zM0 998v-1000h200v1000h-200z" />
    <glyph glyph-name="idieresis" unicode="&#xef;" horiz-adv-x="800" 
d="M400 1198h200v200h-200v-200zM0 1198h200v200h-200v-200zM200 998v-1000h200v1000h-200z" />
    <glyph glyph-name="ntilde" unicode="&#xf1;" 
d="M0 1398v-200h200v200h-200zM200 1598v-200h200v200h-200zM400 1398v-200h200v200h-200zM600 1598v-200h200v200h-200zM0 -2h200v800h400v-800h200v800h-200v200h-400v-200h-200v-800z" />
    <glyph glyph-name="ograve" unicode="&#xf2;" 
d="M400 1398v-200h200v200h-200zM200 1598v-200h200v200h-200zM0 798v-600h200v-200h400v200h200v600h-200v200h-400v-200h-200zM600 798v-600h-400v600h400z" />
    <glyph glyph-name="oacute" unicode="&#xf3;" 
d="M400 1598v-200h200v200h-200zM200 1398v-200h200v200h-200zM0 798v-600h200v-200h400v200h200v600h-200v200h-400v-200h-200zM600 798v-600h-400v600h400z" />
    <glyph glyph-name="ocircumflex" unicode="&#xf4;" 
d="M497 1396h201v-198h-201v198zM297 1596v-200h200v200h-200zM97 1396v-200h200v200h-200zM0 798v-600h200v-200h400v200h200v600h-200v200h-400v-200h-200zM600 798v-600h-400v600h400z" />
    <glyph glyph-name="otilde" unicode="&#xf5;" 
d="M0 1398v-200h200v200h-200zM200 1598v-200h200v200h-200zM400 1398v-200h200v200h-200zM600 1598v-200h200v200h-200zM0 798v-600h200v-200h400v200h200v600h-200v200h-400v-200h-200zM600 798v-600h-400v600h400z" />
    <glyph glyph-name="odieresis" unicode="&#xf6;" 
d="M499 1198h200v200h-200v-200zM99 1198h200v200h-200v-200zM0 798v-600h200v-200h400v200h200v600h-200v200h-400v-200h-200zM600 798v-600h-400v600h400z" />
    <glyph glyph-name="divide" unicode="&#xf7;" horiz-adv-x="1200" 
d="M400 597h-400v200h400v400h200v-400h400v-200h-400v-400h-200v400zM400 997v-200h200v200h-200zM400 596v-200h200v200h-200z" />
    <glyph glyph-name="ugrave" unicode="&#xf9;" 
d="M400 1399v-200h200v200h-200zM200 1599v-200h200v200h-200zM0 199h200v-200h400v200h200v800h-200v-800h-400v800h-200v-800z" />
    <glyph glyph-name="uacute" unicode="&#xfa;" 
d="M400 1598v-200h200v200h-200zM200 1398v-200h200v200h-200zM0 198h200v-200h400v200h200v800h-200v-800h-400v800h-200v-800z" />
    <glyph glyph-name="udieresis" unicode="&#xfc;" 
d="M499 1198h200v200h-200v-200zM99 1198h200v200h-200v-200zM0 198h200v-200h400v200h200v800h-200v-800h-400v800h-200v-800z" />
    <glyph glyph-name="yacute" unicode="&#xfd;" 
d="M400 1598v-200h200v200h-200zM200 1398v-200h200v200h-200zM0 998v-800h200v-200h400v-200h-400v-200h400v200h200v1200h-200v-800h-400v800h-200z" />
    <glyph glyph-name="ydieresis" unicode="&#xff;" 
d="M499 1198h200v200h-200v-200zM99 1198h200v200h-200v-200zM0 998v-800h200v-200h400v-200h-400v-200h400v200h200v1200h-200v-800h-400v800h-200z" />
    <glyph glyph-name="Aogonek" unicode="&#x104;" 
d="M600 -2h200v-200h-200v200zM400 -202h200v-200h-200v200zM0 -2v1200h200v200h400v-200h200v-1200h-200v600h-400v-600h-200zM200 798h400v400h-400v-400z" />
    <glyph glyph-name="aogonek" unicode="&#x105;" 
d="M600 -2h200v-200h-200v200zM400 -202h200v-200h-200v200zM200 198h-200v200h200v200h400v200h-400v200h400v-200h200v-800h-600v200zM600 198v200h-400v-200h400z" />
    <glyph glyph-name="Cacute" unicode="&#x106;" horiz-adv-x="800" 
d="M400 1836v-200h200v200h-200zM200 1636v-200h200v200h-200zM600 -2v200h-400v1000h400v200h-400v-200h-200v-1000h200v-200h400z" />
    <glyph glyph-name="cacute" unicode="&#x107;" horiz-adv-x="800" 
d="M400 1598v-200h200v200h-200zM200 1398v-200h200v200h-200zM200 -2v200h-200v600h200v200h400v-200h-400v-600h400v-200h-400z" />
    <glyph glyph-name="Eogonek" unicode="&#x118;" horiz-adv-x="800" 
d="M400 -2h200v-200h-200v200zM200 -202h200v-200h-200v200zM0 -2v1400h600v-200h-400v-400h400v-200h-400v-400h400v-200h-600z" />
    <glyph glyph-name="eogonek" unicode="&#x119;" 
d="M400 -2h200v-200h-200v200zM200 -202h200v-200h-200v200zM600 198v-200h-400v200h-200v600h200v200h400v-200h200v-400h-600v-200h400zM200 798v-200h400v200h-400z" />
    <glyph glyph-name="Lslash" unicode="&#x141;" 
d="M400 798v200h200v-200h-200zM0 398v200h200v-200h-200zM200 1398h200v-1200h400v-200h-600v1400z" />
    <glyph glyph-name="lslash" unicode="&#x142;" horiz-adv-x="800" 
d="M400 798v200h200v-200h-200zM0 398v200h200v-200h-200zM200 1398h200v-1400h-200v1400z" />
    <glyph glyph-name="Nacute" unicode="&#x143;" 
d="M400 1836v-200h200v200h-200zM200 1636v-200h200v200h-200zM0 -2v1400h200v-400h200v-200h200v600h200v-1400h-200v600h-200v200h-200v-800h-200z" />
    <glyph glyph-name="nacute" unicode="&#x144;" 
d="M400 1598v-200h200v200h-200zM200 1398v-200h200v200h-200zM0 -2h200v800h400v-800h200v800h-200v200h-400v-200h-200v-800z" />
    <glyph glyph-name="Sacute" unicode="&#x15a;" horiz-adv-x="800" 
d="M400 1836v-200h200v200h-200zM200 1636v-200h200v200h-200zM200 1398v-200h-200v-400h200v-200h200v-400h-400v-200h400v200h200v400h-200v200h-200v400h400v200h-400z" />
    <glyph glyph-name="sacute" unicode="&#x15b;" horiz-adv-x="800" 
d="M400 1598v-200h200v200h-200zM200 1398v-200h200v200h-200zM200 998h400v-200h-400v-200h200v-200h200v-200h-200v-200h-400v200h400v200h-200v200h-200v200h200v200z" />
    <glyph glyph-name="Zacute" unicode="&#x179;" horiz-adv-x="800" 
d="M400 1836v-200h200v200h-200zM200 1636v-200h200v200h-200zM0 1198v200h600v-400h-200v-600h-200v-200h400v-200h-600v400h200v600h200v200h-400z" />
    <glyph glyph-name="zacute" unicode="&#x17a;" horiz-adv-x="800" 
d="M400 1598v-200h200v200h-200zM200 1398v-200h200v200h-200zM0 998v-200h400v-200h-200v-200h-200v-200v-200h600v200h-400v200h200v200h200v200v200h-600z" />
    <glyph glyph-name="Zdotaccent" unicode="&#x17b;" horiz-adv-x="800" 
d="M200 1636v-200h200v200h-200zM0 1198v200h600v-400h-200v-600h-200v-200h400v-200h-600v400h200v600h200v200h-400z" />
    <glyph glyph-name="zdotaccent" unicode="&#x17c;" horiz-adv-x="800" 
d="M200 1398v-200h200v200h-200zM0 998v-200h400v-200h-200v-200h-200v-200v-200h600v200h-400v200h200v200h200v200v200h-600z" />
    <glyph glyph-name="uni037E" unicode="&#x37e;" horiz-adv-x="400" 
d="M200 601h-200v200h200v-200zM200 -200h-200v400h200v-400z" />
    <glyph glyph-name="uni0401" unicode="&#x401;" horiz-adv-x="800" 
d="M0 1800h200v-200h-200v200zM400 1800h200v-200h-200v200zM600 0h-600v1400h600v-200h-400v-400h400v-200h-400v-400h400v-200z" />
    <glyph glyph-name="uni0410" unicode="&#x410;" 
d="M800 0h-200v600h-400v-600h-200v1200h200v200h400v-200h200v-1200zM600 800v400h-400v-400h400z" />
    <glyph glyph-name="uni0411" unicode="&#x411;" 
d="M800 200h-200v-200h-600v1400h600v-200h-400v-400h400v-200h200v-400zM600 200v400h-400v-400h400z" />
    <glyph glyph-name="uni0412" unicode="&#x412;" 
d="M800 200h-200v-200h-600v1400h600v-200h200v-400h-200v-200h200v-400zM600 800v400h-400v-400h400zM600 200v400h-400v-400h400z" />
    <glyph glyph-name="uni0413" unicode="&#x413;" horiz-adv-x="800" 
d="M600 1200h-400v-1200h-200v1400h600v-200z" />
    <glyph glyph-name="uni0414" unicode="&#x414;" horiz-adv-x="1400" 
d="M800 200v1000h-400v-1000h400zM400 1200v200h600v-1200h200v-400h-200v200h-800v-200h-200v400h200v1000h200z" />
    <glyph glyph-name="uni0415" unicode="&#x415;" horiz-adv-x="800" 
d="M600 0h-600v1400h600v-200h-400v-400h400v-200h-400v-400h400v-200z" />
    <glyph glyph-name="uni0416" unicode="&#x416;" horiz-adv-x="1600" 
d="M600 800h-200v200h-200v400h-200v-400h200v-200h200v-200h-200v-200h-200v-400h200v400h200v200h200v-600h200v600h200v-200h200v-400h200v400h-200v200h-200v200h200v200h200v400h-200v-400h-200v-200h-200v600h-200v-600z" />
    <glyph glyph-name="uni0417" unicode="&#x417;" horiz-adv-x="800" 
d="M400 0v200h200v400h-200v200h200v400h-200v200h-400v-200h400v-400h-400v-200h400v-400h-400v-200h400z" />
    <glyph glyph-name="uni0418" unicode="&#x418;" 
d="M800 0h-200v800h-200v-200h-200v-600h-200v1400h200v-600h200v200h200v400h200v-1400z" />
    <glyph glyph-name="uni0419" unicode="&#x419;" 
d="M800 0h-200v800h-200v-200h-200v-600h-200v1400h200v-600h200v200h200v400h200v-1400zM600 1800v-200h-400v200h400z" />
    <glyph glyph-name="uni041A" unicode="&#x41a;" 
d="M800 0h-200v400h-200v200h-200v-600h-200v1400h200v-600h200v200h200v400h200v-400h-200v-200h-200v-200h200v-200h200v-400z" />
    <glyph glyph-name="uni041B" unicode="&#x41b;" horiz-adv-x="1200" 
d="M1000 0h-200v1200h-400v-1000h-200v-200h-200v200h200v1200h800v-1400z" />
    <glyph glyph-name="uni041C" unicode="&#x41c;" horiz-adv-x="1200" 
d="M1000 0h-200v800h-200v-200h-200v200h-200v-800h-200v1400h200v-400h200v-200h200v200h200v400h200v-1400z" />
    <glyph glyph-name="uni041D" unicode="&#x41d;" 
d="M800 0h-200v600h-400v-600h-200v1400h200v-600h400v600h200v-1400z" />
    <glyph glyph-name="uni041E" unicode="&#x41e;" 
d="M800 200h-200v-200h-400v200h-200v1000h200v200h400v-200h200v-1000zM600 200v1000h-400v-1000h400z" />
    <glyph glyph-name="uni041F" unicode="&#x41f;" 
d="M800 0h-200v1200h-400v-1200h-200v1400h800v-1400z" />
    <glyph glyph-name="uni0420" unicode="&#x420;" 
d="M800 800h-200v-200h-400v-600h-200v1400h600v-200h200v-400zM600 800v400h-400v-400h400z" />
    <glyph glyph-name="uni0421" unicode="&#x421;" horiz-adv-x="800" 
d="M600 0h-400v200h-200v1000h200v200h400v-200h-400v-1000h400v-200z" />
    <glyph glyph-name="uni0422" unicode="&#x422;" horiz-adv-x="800" 
d="M600 1200h-200v-1200h-200v1200h-200v200h600v-200z" />
    <glyph glyph-name="uni0423" unicode="&#x423;" 
d="M800 200h-200v-200h-400v200h400v400h-400v200h-200v600h200v-600h400v600h200v-1200z" />
    <glyph glyph-name="uni0424" unicode="&#x424;" horiz-adv-x="1600" 
d="M600 0h200v200h400v200h200v800h-200v-800h-400v800h400v200h-1000v-200h400v-800h-400v800h-200v-800h200v-200h400v-200z" />
    <glyph glyph-name="uni0425" unicode="&#x425;" horiz-adv-x="1200" 
d="M1000 0h-200v400h-200v200h-200v-200h-200v-400h-200v400h200v200h200v200h-200v200h-200v400h200v-400h200v-200h200v200h200v400h200v-400h-200v-200h-200v-200h200v-200h200v-400z" />
    <glyph glyph-name="uni0426" unicode="&#x426;" horiz-adv-x="1200" 
d="M800 0v-200h200v400h-200v1200h-200v-1200h-400v1200h-200v-1400h800z" />
    <glyph glyph-name="uni0427" unicode="&#x427;" 
d="M800 0h-200v600h-400v200h-200v600h200v-600h400v600h200v-1400z" />
    <glyph glyph-name="uni0428" unicode="&#x428;" horiz-adv-x="1600" 
d="M1200 1400h200v-1400h-1400v1400h200v-1200h400v1200h200v-1200h400v1200z" />
    <glyph glyph-name="uni0429" unicode="&#x429;" horiz-adv-x="1800" 
d="M1200 1400h200v-1200h200v-400h-200v200h-1400v1400h200v-1200h400v1200h200v-1200h400v1200z" />
    <glyph glyph-name="uni042A" unicode="&#x42a;" horiz-adv-x="1200" 
d="M800 600h-400v-400h400v400zM800 600h200v-400h-200v-200h-600v1200h-200v200h400v-600h400v-200z" />
    <glyph glyph-name="uni042B" unicode="&#x42b;" horiz-adv-x="1400" 
d="M1000 1400h200v-1400h-200v1400zM800 200h-200v-200h-600v1400h200v-600h400v-200h200v-400zM600 200v400h-400v-400h400z" />
    <glyph glyph-name="uni042C" unicode="&#x42c;" 
d="M800 200h-200v-200h-600v1400h200v-600h400v-200h200v-400zM600 200v400h-400v-400h400z" />
    <glyph glyph-name="uni042D" unicode="&#x42d;" horiz-adv-x="800" 
d="M400 0v200h200v1000h-200v200h-400v-200h400v-400h-400v-200h400v-400h-400v-200h400z" />
    <glyph glyph-name="uni042E" unicode="&#x42e;" horiz-adv-x="1400" 
d="M0 1400h200v-600h200v400h200v-1000h400v1000h-400v200h400v-200h200v-1000h-200v-200h-400v200h-200v400h-200v-600h-200v1400z" />
    <glyph glyph-name="uni042F" unicode="&#x42f;" 
d="M200 0v600h400v-600h200v1400h-600v-200h-200v-400h200v-200h-200v-600h200zM200 1200h400v-400h-400v400z" />
    <glyph glyph-name="uni0430" unicode="&#x430;" 
d="M800 0h-600v200h-200v200h200v200h400v200h-400v200h400v-200h200v-800zM600 200v200h-400v-200h400z" />
    <glyph glyph-name="uni0431" unicode="&#x431;" 
d="M0 1200h200v200h400v-200h-400v-200h400v-200h200v-600h-200v-200h-400v200h-200v1000zM200 800v-600h400v600h-400z" />
    <glyph glyph-name="uni0432" unicode="&#x432;" 
d="M800 200h-200v-200h-600v1000h600v-200h200v-200h-200v-200h200v-200zM600 600v200h-400v-200h400zM600 200v200h-400v-200h400z" />
    <glyph glyph-name="uni0433" unicode="&#x433;" horiz-adv-x="800" 
d="M600 800h-400v-800h-200v1000h600v-200z" />
    <glyph glyph-name="uni0434" unicode="&#x434;" horiz-adv-x="1400" 
d="M800 200v600h-400v-600h400zM400 800v200h600v-800h200v-400h-200v200h-800v-200h-200v400h200v600h200z" />
    <glyph glyph-name="uni0435" unicode="&#x435;" 
d="M800 400h-600v-200h400v-200h-400v200h-200v600h200v200h400v-200h200v-400zM600 600v200h-400v-200h400z" />
    <glyph glyph-name="uni0436" unicode="&#x436;" horiz-adv-x="1600" 
d="M600 600h-200v200h-200v200h-200v-200h200v-200h200v-200h-200v-200h-200v-200h200v200h200v200h200v-400h200v400h200v-200h200v-200h200v200h-200v200h-200v200h200v200h200v200h-200v-200h-200v-200h-200v400h-200v-400z" />
    <glyph glyph-name="uni0437" unicode="&#x437;" horiz-adv-x="800" 
d="M400 0v200h200v200h-200v200h200v200h-200v200h-400v-200h400v-200h-400v-200h400v-200h-400v-200h400z" />
    <glyph glyph-name="uni0438" unicode="&#x438;" 
d="M800 0h-200v600h-200v-200h-200v-400h-200v1000h200v-400h200v200h200v200h200v-1000z" />
    <glyph glyph-name="uni0439" unicode="&#x439;" 
d="M800 0h-200v600h-200v-200h-200v-400h-200v1000h200v-400h200v200h200v200h200v-1000zM600 1400v-200h-400v200h400z" />
    <glyph glyph-name="uni043A" unicode="&#x43a;" 
d="M800 0h-200v200h-200v200h-200v-400h-200v1000h200v-400h200v200h200v200h200v-200h-200v-200h-200v-200h200v-200h200v-200z" />
    <glyph glyph-name="uni043B" unicode="&#x43b;" horiz-adv-x="1200" 
d="M1000 0h-200v800h-400v-600h-200v-200h-200v200h200v800h800v-1000z" />
    <glyph glyph-name="uni043C" unicode="&#x43c;" horiz-adv-x="1200" 
d="M1000 0h-200v600h-200v-200h-200v200h-200v-600h-200v1000h200v-200h200v-200h200v200h200v200h200v-1000z" />
    <glyph glyph-name="uni043D" unicode="&#x43d;" 
d="M800 0h-200v370h-400v-370h-200v970h200v-400h400v400h200v-970z" />
    <glyph glyph-name="uni043E" unicode="&#x43e;" 
d="M800 200h-200v-200h-400v200h-200v600h200v200h400v-200h200v-600zM600 200v600h-400v-600h400z" />
    <glyph glyph-name="uni043F" unicode="&#x43f;" 
d="M800 0h-200v800h-400v-800h-200v1000h800v-1000z" />
    <glyph glyph-name="uni0440" unicode="&#x440;" 
d="M800 200h-200v-200h-400v-400h-200v1400h200h400v-200h200v-600zM600 200v600h-400v-600h400z" />
    <glyph glyph-name="uni0441" unicode="&#x441;" horiz-adv-x="800" 
d="M600 0h-400v200h-200v600h200v200h400v-200h-400v-600h400v-200z" />
    <glyph glyph-name="uni0442" unicode="&#x442;" horiz-adv-x="800" 
d="M600 800h-200v-800h-200v800h-200v200h600v-200z" />
    <glyph glyph-name="uni0443" unicode="&#x443;" 
d="M800 -200h-200v-200h-400v200h400v200h-400v200h-200v800h200v-800h400v800h200v-1200z" />
    <glyph glyph-name="uni0444" unicode="&#x444;" horiz-adv-x="1600" 
d="M600 -400h200v400h400v200h200v600h-200v-600h-400v600h400v200h-400v400h-200v-400h-400v-200h400v-600h-400v600h-200v-600h200v-200h400v-400z" />
    <glyph glyph-name="uni0445" unicode="&#x445;" horiz-adv-x="1200" 
d="M1000 0h-200v200h-200v200h-200v-200h-200v-200h-200v200h200v200h200v200h-200v200h-200v200h200v-200h200v-200h200v200h200v200h200v-200h-200v-200h-200v-200h200v-200h200v-200z" />
    <glyph glyph-name="uni0446" unicode="&#x446;" horiz-adv-x="1200" 
d="M800 0v-200h200v400h-200v800h-200v-800h-400v800h-200v-1000h800z" />
    <glyph glyph-name="uni0447" unicode="&#x447;" 
d="M800 0h-200v400h-400v200h-200v400h200v-400h400v400h200v-1000z" />
    <glyph glyph-name="uni0448" unicode="&#x448;" horiz-adv-x="1600" 
d="M1200 1000h200v-1000h-1400v1000h200v-800h400v800h200v-800h400v800z" />
    <glyph glyph-name="uni0449" unicode="&#x449;" horiz-adv-x="1800" 
d="M1200 1000h200v-800h200v-400h-200v200h-1400v1000h200v-800h400v800h200v-800h400v800z" />
    <glyph glyph-name="uni044A" unicode="&#x44a;" horiz-adv-x="1200" 
d="M800 400h-400v-200h400v200zM800 400h200v-200h-200v-200h-600v800h-200v200h400v-400h400v-200z" />
    <glyph glyph-name="uni044B" unicode="&#x44b;" horiz-adv-x="1400" 
d="M1000 1000h200v-1000h-200v1000zM800 200h-200v-200h-600v1000h200v-400h400v-200h200v-200zM600 200v200h-400v-200h400z" />
    <glyph glyph-name="uni044C" unicode="&#x44c;" 
d="M800 200h-200v-200h-600v1000h200v-400h400v-200h200v-200zM600 200v200h-400v-200h400z" />
    <glyph glyph-name="uni044D" unicode="&#x44d;" horiz-adv-x="800" 
d="M400 0v200h200v600h-200v200h-400v-200h400v-200h-400v-200h400v-200h-400v-200h400z" />
    <glyph glyph-name="uni044E" unicode="&#x44e;" horiz-adv-x="1400" 
d="M0 1000h200v-400h200v200h200v-600h400v600h-400v200h400v-200h200v-600h-200v-200h-400v200h-200v200h-200v-400h-200v1000z" />
    <glyph glyph-name="uni044F" unicode="&#x44f;" 
d="M200 0v400h400v-400h200v1000h-600v-200h-200v-200h200v-200h-200v-400h200zM200 800h400v-200h-400v200z" />
    <glyph glyph-name="uni0451" unicode="&#x451;" 
d="M600 1400h200v-200h-200v200zM0 1400h200v-200h-200v200zM800 400h-600v-200h400v-200h-400v200h-200v600h200v200h400v-200h200v-400zM600 600v200h-400v-200h400z" />
    <glyph glyph-name="endash" unicode="&#x2013;" horiz-adv-x="1108" 
d="M1052 419h-996v120h996v-120z" />
    <glyph glyph-name="emdash" unicode="&#x2014;" horiz-adv-x="2048" 
d="M2048 419h-2048v120h2048v-120z" />
    <glyph glyph-name="quoteleft" unicode="&#x2018;" horiz-adv-x="400" 
d="M200 1200h-200v400h200v-400z" />
    <glyph glyph-name="quoteright" unicode="&#x2019;" horiz-adv-x="400" 
d="M200 1200h-200v400h200v-400z" />
    <glyph glyph-name="quotedblleft" unicode="&#x201c;" horiz-adv-x="800" 
d="M600 1200h-200v400h200v-400zM200 1200h-200v400h200v-400z" />
    <glyph glyph-name="quotedblright" unicode="&#x201d;" horiz-adv-x="800" 
d="M600 1200h-200v400h200v-400zM200 1200h-200v400h200v-400z" />
    <glyph glyph-name="Euro" unicode="&#x20ac;" 
d="M800 0h-400v200h-200v200h-200v600h200v200h200v200h400v-200h-400v-200h-200v-200h400v-200h-400v-200h200v-200h400v-200z" />
    <glyph glyph-name=".null" horiz-adv-x="0" 
 />
  </font>
</defs>
</svg>
